<svg xmlns="http://www.w3.org/2000/svg" version="1.1" xmlns:xlink="http://www.w3.org/1999/xlink" width="457.54797077730143" height="200" viewBox="-1.1349999904632568 13.313239097595215 56.0625114440918 18.876758575439453"><path d="M11.37 14.39L11.37 14.39Q12.27 13.48 12.58 13.55Q12.89 13.63 13.16 13.87Q13.44 14.10 13.48 14.41Q13.52 14.73 13.53 15.45Q13.54 16.17 13.65 16.45Q13.77 16.72 14.00 18.20Q14.24 19.69 14.26 20.01Q14.28 20.33 14.43 20.98Q14.59 21.62 16.10 21.29Q17.62 20.96 19.09 20.55Q20.57 20.14 21.27 19.91Q21.97 19.69 19.79 20.60Q17.60 21.50 16.74 22.03Q15.88 22.56 15.19 23.09Q14.49 23.61 14.48 24.35Q14.47 25.08 14.32 26.37Q14.16 27.66 14.00 28.63Q13.85 29.61 13.77 30.23Q13.69 30.86 13.34 31.45Q12.99 32.03 12.56 32.11Q12.13 32.19 11.86 31.84Q11.58 31.48 11.78 30.11Q11.97 28.73 12.17 27.65Q12.36 26.56 12.54 25.29Q12.71 24.02 11.72 24.16Q10.72 24.30 9.63 24.45Q8.54 24.61 7.44 24.75Q6.35 24.88 5.62 25.24Q4.88 25.61 3.04 28.12Q1.19 30.63 0.63 31.41Q0.06 32.19-0.39 32.19Q-0.84 32.19-1.04 31.85Q-1.23 31.50-1.04 30.84Q-0.86 30.18 0.32 28.37Q1.50 26.56 3.07 24.65Q4.63 22.73 5.66 21.55Q6.70 20.37 7.53 19.23Q8.36 18.09 9.41 16.70Q10.47 15.31 11.37 14.39ZM12.11 18.46L12.11 18.46Q11.91 17.09 11.36 17.78Q10.80 18.48 10.33 19.11Q9.86 19.75 8.42 21.34Q6.97 22.93 8.16 22.65Q9.36 22.36 11.04 22.19Q12.73 22.01 12.68 21.46Q12.62 20.92 12.47 20.37Q12.32 19.82 12.11 18.46ZM19.79 21.95L19.79 21.95Q20.20 21.76 20.83 22.03Q21.46 22.30 21.10 23.05Q20.74 23.79 19.92 25.50Q19.10 27.21 19.76 26.44Q20.41 25.66 21.34 24.86Q22.27 24.06 22.68 23.83Q23.09 23.59 23.56 23.48Q24.04 23.36 24.65 23.54Q25.25 23.71 25.68 24.52Q26.11 25.33 26.14 27.20Q26.17 29.06 27.06 29.02Q27.95 28.98 28.79 28.37Q29.63 27.75 30.04 27.12Q30.45 26.48 30.39 26.78Q30.33 27.07 29.94 27.64Q29.55 28.20 28.28 29.39Q27.01 30.59 26.08 30.61Q25.16 30.63 24.74 29.86Q24.32 29.10 24.19 27.43Q24.06 25.76 23.75 25.73Q23.44 25.70 22.38 26.36Q21.33 27.01 20.45 28.07Q19.57 29.12 19.01 29.85Q18.46 30.59 18.01 30.74Q17.56 30.90 17.28 30.51Q16.99 30.12 17.08 29.55Q17.17 28.98 17.42 27.81Q17.68 26.64 18.14 25.34Q18.61 24.04 17.93 24.49Q17.25 24.94 16.26 25.85Q15.27 26.76 16.96 24.99Q18.65 23.22 18.84 22.93Q19.02 22.64 19.20 22.39Q19.38 22.15 19.79 21.95ZM33.50 13.55L33.50 13.55Q33.91 13.14 34.62 13.44Q35.33 13.73 34.87 15.96Q34.41 18.18 33.87 20.41Q33.32 22.64 34.11 22.57Q34.90 22.50 35.58 21.95Q36.25 21.41 37.07 20.79Q37.89 20.18 38.62 19.72Q39.36 19.26 39.51 19.97Q39.67 20.68 39.41 21.16Q39.16 21.64 37.34 22.85Q35.53 24.06 35.62 24.37Q35.70 24.67 35.80 24.97Q35.90 25.27 36.61 26.30Q37.32 27.32 38.49 28.43Q39.65 29.53 39.53 29.79Q39.41 30.06 39.12 30.15Q38.83 30.23 38.38 30.30Q37.93 30.37 37.03 29.60Q36.13 28.83 35.30 27.70Q34.47 26.56 33.90 25.89Q33.32 25.21 33.10 25.05Q32.87 24.88 32.26 26.87Q31.64 28.85 31.17 29.84Q30.70 30.84 30.14 30.69Q29.57 30.55 29.41 30.39Q29.26 30.23 29.37 29.77Q29.47 29.30 30.08 28.02Q30.68 26.74 31.47 23.03Q32.27 19.32 32.47 17.80Q32.68 16.29 32.06 17.45Q31.45 18.61 30.01 20.63Q28.57 22.66 29.69 20.94Q30.80 19.22 31.27 18.37Q31.74 17.52 32.41 15.74Q33.09 13.96 33.50 13.55ZM45.68 15.55L45.68 15.55Q46.11 15.90 46.20 17.08Q46.29 18.26 47.01 19.38Q47.73 20.51 48.71 21.17Q49.69 21.84 50.50 22.11Q51.31 22.38 50.45 22.24Q49.59 22.09 48.74 21.55Q47.89 21.02 46.91 19.95Q45.94 18.89 45.49 18.39Q45.04 17.89 44.85 17.83Q44.67 17.77 44.54 17.74Q44.41 17.71 43.96 17.35Q43.50 16.99 43.62 16.46Q43.75 15.94 43.96 15.68Q44.18 15.43 44.72 15.30Q45.25 15.18 45.68 15.55ZM42.56 21.46L42.56 21.46Q42.99 21.37 43.54 21.52Q44.10 21.68 43.74 22.66Q43.38 23.63 42.95 25.20Q42.52 26.76 42.14 27.73Q41.76 28.71 41.29 29.42Q40.82 30.14 40.39 30.20Q39.96 30.25 39.79 30.17Q39.63 30.08 39.77 29.26Q39.90 28.44 40.34 26.75Q40.78 25.06 41.17 23.81Q41.56 22.56 41.18 22.53Q40.80 22.50 41.47 22.03Q42.15 21.56 42.56 21.46ZM49.14 17.36L49.14 17.36Q49.38 17.09 49.88 17.13Q50.39 17.17 50.63 17.44Q50.86 17.71 51.02 18.11Q51.17 18.50 50.96 18.93Q50.74 19.36 50.55 20.05Q50.35 20.74 50.04 21.99Q49.73 23.24 50.08 23.40Q50.43 23.55 51.29 23.71Q52.15 23.87 54.03 23.83Q55.92 23.79 53.83 24.10Q51.74 24.41 50.73 24.67Q49.73 24.92 49.40 25.03Q49.08 25.14 48.31 27.20Q47.54 29.26 47.29 29.94Q47.05 30.63 46.78 30.86Q46.50 31.09 46.07 31.21Q45.64 31.33 45.29 31.17Q44.94 31.02 45.30 29.90Q45.66 28.79 46.29 27.27Q46.91 25.74 46.97 25.37Q47.03 25 46.46 25.10Q45.90 25.20 45.46 25.21Q45.02 25.21 45.03 24.66Q45.04 24.10 45.74 23.75Q46.45 23.40 46.99 23.39Q47.54 23.38 47.97 21.87Q48.40 20.35 48.48 19.85Q48.55 19.36 48.73 18.50Q48.91 17.64 49.14 17.36Z" fill="black"></path></svg>